<?xml version="1.0" encoding="UTF-8"?>
<svg xmlns="http://www.w3.org/2000/svg" xmlns:xlink="http://www.w3.org/1999/xlink" width="60px" height="60px" viewBox="0 0 60 60" version="1.1">
<g id="surface1">
<path style=" stroke:none;fill-rule:nonzero;fill:rgb(0%,32.156863%,100%);fill-opacity:1;" d="M 60 30 C 60 46.570312 46.570312 60 30 60 C 13.429688 60 0 46.570312 0 30 C 0 13.429688 13.429688 0 30 0 C 46.570312 0 60 13.429688 60 30 Z M 60 30 "/>
<path style=" stroke:none;fill-rule:evenodd;fill:rgb(100%,100%,100%);fill-opacity:1;" d="M 9 30 C 9 41.597656 18.402344 51 30 51 C 41.597656 51 51 41.597656 51 30 C 51 18.402344 41.597656 9 30 9 C 18.402344 9 9 18.402344 9 30 Z M 24.632812 23.234375 C 23.859375 23.234375 23.234375 23.859375 23.234375 24.632812 L 23.234375 35.367188 C 23.234375 36.140625 23.859375 36.765625 24.632812 36.765625 L 35.367188 36.765625 C 36.140625 36.765625 36.765625 36.140625 36.765625 35.367188 L 36.765625 24.632812 C 36.765625 23.859375 36.140625 23.234375 35.367188 23.234375 Z M 24.632812 23.234375 "/>
</g>
</svg>
